<?xml version="1.0" encoding="UTF-8" standalone="no"?>
<!-- Created with Bouml (http://bouml.free.fr/) -->
<!DOCTYPE svg PUBLIC "-//W3C//DTD SVG 1.1//EN" "http://www.w3.org/Graphics/SVG/1.1/DTD/svg11.dtd">
<svg width="914" height="1222" version="1.1" xmlns="http://www.w3.org/2000/svg">
<g>
	<rect fill="none" stroke="black" stroke-width="1" stroke-opacity="1" x="119" y="445" width="312" height="10" />
	<rect fill="none" stroke="black" stroke-width="1" stroke-opacity="1" x="119" y="455" width="783" height="755" />
	<text font-family="Helvetica" font-size="8" fill="#000000" xml:space="preserve" text-anchor="middle" x="511" y="464">model</text>
</g>
<g>
	<rect fill="#808080" stroke="none" stroke-opacity="1" x="344" y="699" width="2" height="352" />
	<rect fill="#808080" stroke="none" stroke-opacity="1" x="226" y="1049" width="120" height="2" />
	<rect fill="#ffffc0" stroke="black" stroke-width="1" stroke-opacity="1" x="223" y="696" width="121" height="353" />
	<text font-family="Helvetica" font-size="8" fill="#000000" xml:space="preserve" font-weight="bold" text-anchor="middle" x="284" y="705">StateFullSchedule</text>
	<line stroke="black" stroke-opacity="1" x1="223" y1="707" x2="344" y2="707" />
	<text font-family="Helvetica" font-size="8" fill="#000000" xml:space="preserve" x="225" y="716">indexLine</text>
	<text font-family="Helvetica" font-size="8" fill="#000000" xml:space="preserve" x="225" y="726">filesPath</text>
	<text font-family="Helvetica" font-size="8" fill="#000000" xml:space="preserve" x="225" y="736">csvDelemiter</text>
	<text font-family="Helvetica" font-size="8" fill="#000000" xml:space="preserve" x="225" y="746">choice_sem</text>
	<text font-family="Helvetica" font-size="8" fill="#000000" xml:space="preserve" x="225" y="756">ready</text>
	<line stroke="black" stroke-opacity="1" x1="223" y1="758" x2="344" y2="758" />
	<text font-family="Helvetica" font-size="8" fill="#000000" xml:space="preserve" x="225" y="767">StateFullSchedule()</text>
	<text font-family="Helvetica" font-size="8" fill="#000000" xml:space="preserve" x="225" y="777">init()</text>
	<text font-family="Helvetica" font-size="8" fill="#000000" xml:space="preserve" x="225" y="787">update_from_files()</text>
	<text font-family="Helvetica" font-size="8" fill="#000000" xml:space="preserve" x="225" y="797">createStateFromCardFile()</text>
	<text font-family="Helvetica" font-size="8" fill="#000000" xml:space="preserve" x="225" y="807">createStateFromClassRoomFile()</text>
	<text font-family="Helvetica" font-size="8" fill="#000000" xml:space="preserve" x="225" y="817">createStateFromConstrainDir()</text>
	<text font-family="Helvetica" font-size="8" fill="#000000" xml:space="preserve" x="225" y="827">treatConstraintFile()</text>
	<text font-family="Helvetica" font-size="8" fill="#000000" xml:space="preserve" x="225" y="837">updateTeacherConstraints()</text>
	<text font-family="Helvetica" font-size="8" fill="#000000" xml:space="preserve" x="225" y="847">readRoomFromCSV()</text>
	<text font-family="Helvetica" font-size="8" fill="#000000" xml:space="preserve" x="225" y="857">readRoomFromXLS()</text>
	<text font-family="Helvetica" font-size="8" fill="#000000" xml:space="preserve" x="225" y="867">constructRoomStateFromLine()</text>
	<text font-family="Helvetica" font-size="8" fill="#000000" xml:space="preserve" x="225" y="877">readCardFromCSV()</text>
	<text font-family="Helvetica" font-size="8" fill="#000000" xml:space="preserve" x="225" y="887">setDelemiter()</text>
	<text font-family="Helvetica" font-size="8" fill="#000000" xml:space="preserve" x="225" y="897">constructCardStateFromLine()</text>
	<text font-family="Helvetica" font-size="8" fill="#000000" xml:space="preserve" x="225" y="907">readCardFromXLS()</text>
	<text font-family="Helvetica" font-size="8" fill="#000000" xml:space="preserve" x="225" y="917">putRightIndex()</text>
	<text font-family="Helvetica" font-size="8" fill="#000000" xml:space="preserve" x="225" y="927">findMachingCards()</text>
	<text font-family="Helvetica" font-size="8" fill="#000000" xml:space="preserve" x="225" y="937">findTeacherFromLastName()</text>
	<text font-family="Helvetica" font-size="8" fill="#000000" xml:space="preserve" x="225" y="947">findTeacher()</text>
	<text font-family="Helvetica" font-size="8" fill="#000000" xml:space="preserve" x="225" y="957">findRoom()</text>
	<text font-family="Helvetica" font-size="8" fill="#000000" xml:space="preserve" x="225" y="967">findSection()</text>
	<text font-family="Helvetica" font-size="8" fill="#000000" xml:space="preserve" x="225" y="977">isReady()</text>
	<text font-family="Helvetica" font-size="8" fill="#000000" xml:space="preserve" x="225" y="987">saveProject()</text>
	<text font-family="Helvetica" font-size="8" fill="#000000" xml:space="preserve" x="225" y="997">getCards()</text>
	<text font-family="Helvetica" font-size="8" fill="#000000" xml:space="preserve" x="225" y="1007">getTeachers()</text>
	<text font-family="Helvetica" font-size="8" fill="#000000" xml:space="preserve" x="225" y="1017">getClassRoom()</text>
	<text font-family="Helvetica" font-size="8" fill="#000000" xml:space="preserve" x="225" y="1027">getSections()</text>
	<text font-family="Helvetica" font-size="8" fill="#000000" xml:space="preserve" x="225" y="1037">setFilesPath()</text>
	<text font-family="Helvetica" font-size="8" fill="#000000" xml:space="preserve" x="225" y="1047">getFilesPath()</text>
</g>
<g>
	<text font-family="Helvetica" font-size="8" fill="#000000" xml:space="preserve" x="707" y="1036">cards</text>
</g>
<g>
	<text font-family="Helvetica" font-size="8" fill="#000000" xml:space="preserve" x="580" y="753">lessons</text>
</g>
<g>
	<text font-family="Helvetica" font-size="8" fill="#000000" xml:space="preserve" x="505" y="1086">card_sections</text>
</g>
<g>
	<text font-family="Helvetica" font-size="8" fill="#000000" xml:space="preserve" x="374" y="1035">sections</text>
</g>
<g>
	<text font-family="Helvetica" font-size="8" fill="#000000" xml:space="preserve" x="670" y="646">preferedClassRoom</text>
</g>
<g>
	<text font-family="Helvetica" font-size="8" fill="#000000" xml:space="preserve" x="670" y="679">preferedClassRoom</text>
</g>
<g>
	<text font-family="Helvetica" font-size="8" fill="#000000" xml:space="preserve" x="506" y="815">lessons</text>
</g>
<g>
	<text font-family="Helvetica" font-size="8" fill="#000000" xml:space="preserve" x="777" y="784">classRoom</text>
</g>
<g>
	<text font-family="Helvetica" font-size="8" fill="#000000" xml:space="preserve" x="814" y="784">all_rooms</text>
</g>
<g>
	<text font-family="Helvetica" font-size="8" fill="#000000" xml:space="preserve" x="612" y="505">teacher</text>
</g>
<g>
	<text font-family="Helvetica" font-size="8" fill="#000000" xml:space="preserve" x="757" y="731">rooms</text>
</g>
<g>
	<text font-family="Helvetica" font-size="8" fill="#000000" xml:space="preserve" x="836" y="844">cards</text>
</g>
<g>
	<text font-family="Helvetica" font-size="8" fill="#000000" xml:space="preserve" x="357" y="926">state</text>
</g>
<g>
	<text font-family="Helvetica" font-size="8" fill="#000000" xml:space="preserve" x="472" y="551">teachers</text>
</g>
<g>
	<text font-family="Helvetica" font-size="8" fill="#000000" xml:space="preserve" x="801" y="844">cards</text>
</g>
<g>
	<text font-family="Helvetica" font-size="8" fill="#000000" xml:space="preserve" x="357" y="725">state</text>
</g>
<g>
	<text font-family="Helvetica" font-size="8" fill="#000000" xml:space="preserve" x="707" y="961">cards</text>
</g>
<g>
	<text font-family="Helvetica" font-size="8" fill="#000000" xml:space="preserve" x="607" y="810">lesson</text>
</g>
<g>
	<text font-family="Helvetica" font-size="8" fill="#000000" xml:space="preserve" x="560" y="647">teacher</text>
</g>
<g>
	<rect fill="#808080" stroke="none" stroke-opacity="1" x="856" y="852" width="2" height="282" />
	<rect fill="#808080" stroke="none" stroke-opacity="1" x="740" y="1132" width="118" height="2" />
	<rect fill="#ffffc0" stroke="black" stroke-width="1" stroke-opacity="1" x="737" y="849" width="119" height="283" />
	<text font-family="Helvetica" font-size="8" fill="#000000" xml:space="preserve" font-weight="bold" text-anchor="middle" x="797" y="858">Card</text>
	<line stroke="black" stroke-opacity="1" x1="737" y1="860" x2="856" y2="860" />
	<text font-family="Helvetica" font-size="8" fill="#000000" xml:space="preserve" x="739" y="869">timePeriod</text>
	<text font-family="Helvetica" font-size="8" fill="#000000" xml:space="preserve" x="739" y="879">cardId</text>
	<text font-family="Helvetica" font-size="8" fill="#000000" xml:space="preserve" x="739" y="889">mod</text>
	<text font-family="Helvetica" font-size="8" fill="#000000" xml:space="preserve" x="739" y="899">info</text>
	<line stroke="black" stroke-opacity="1" x1="737" y1="901" x2="856" y2="901" />
	<text font-family="Helvetica" font-size="8" fill="#000000" xml:space="preserve" x="739" y="910">Card()</text>
	<text font-family="Helvetica" font-size="8" fill="#000000" xml:space="preserve" x="739" y="920">resetStatusCard()</text>
	<text font-family="Helvetica" font-size="8" fill="#000000" xml:space="preserve" x="739" y="930">setTimePeriod_and_pickARoom()</text>
	<text font-family="Helvetica" font-size="8" fill="#000000" xml:space="preserve" x="739" y="940">setTimePeriod_and_Room()</text>
	<text font-family="Helvetica" font-size="8" fill="#000000" xml:space="preserve" x="739" y="950">pick_best_room()</text>
	<text font-family="Helvetica" font-size="8" fill="#000000" xml:space="preserve" x="739" y="960">getSeatsToProvide()</text>
	<text font-family="Helvetica" font-size="8" fill="#000000" xml:space="preserve" x="739" y="970">getState()</text>
	<text font-family="Helvetica" font-size="8" fill="#000000" xml:space="preserve" x="739" y="980">getTimePeriod()</text>
	<text font-family="Helvetica" font-size="8" fill="#000000" xml:space="preserve" x="739" y="990">update()</text>
	<text font-family="Helvetica" font-size="8" fill="#000000" xml:space="preserve" x="739" y="1000">getHtmlRepresentation()</text>
	<text font-family="Helvetica" font-size="8" fill="#000000" xml:space="preserve" x="739" y="1010">getMod()</text>
	<text font-family="Helvetica" font-size="8" fill="#000000" xml:space="preserve" x="739" y="1020">isInfo()</text>
	<text font-family="Helvetica" font-size="8" fill="#000000" xml:space="preserve" x="739" y="1030">getClassRoom()</text>
	<text font-family="Helvetica" font-size="8" fill="#000000" xml:space="preserve" x="739" y="1040">getTeacher()</text>
	<text font-family="Helvetica" font-size="8" fill="#000000" xml:space="preserve" x="739" y="1050">getLesson()</text>
	<text font-family="Helvetica" font-size="8" fill="#000000" xml:space="preserve" x="739" y="1060">getCard_sections()</text>
	<text font-family="Helvetica" font-size="8" fill="#000000" xml:space="preserve" x="739" y="1070">getCardId()</text>
	<text font-family="Helvetica" font-size="8" fill="#000000" xml:space="preserve" x="739" y="1080">addSection()</text>
	<text font-family="Helvetica" font-size="8" fill="#000000" xml:space="preserve" x="739" y="1090">toString()</text>
	<text font-family="Helvetica" font-size="8" fill="#000000" xml:space="preserve" x="739" y="1100">findAllRoom()</text>
	<text font-family="Helvetica" font-size="8" fill="#000000" xml:space="preserve" x="739" y="1110">findBackgroundColor()</text>
	<text font-family="Helvetica" font-size="8" fill="#000000" xml:space="preserve" x="739" y="1120">getDayName()</text>
	<text font-family="Helvetica" font-size="8" fill="#000000" xml:space="preserve" x="739" y="1130">getPeriodName()</text>
</g>
<g>
	<line stroke="black" stroke-opacity="1" x1="347" y1="930" x2="353" y2="935" />
	<line stroke="black" stroke-opacity="1" x1="347" y1="930" x2="352" y2="923" />
	<line stroke="black" stroke-opacity="1" x1="736" y1="928" x2="347" y2="930" />
</g>
<g>
	<text font-family="Helvetica" font-size="8" fill="#000000" xml:space="preserve" x="523" y="972">&lt;&lt;Map&gt;&gt;</text>
</g>
<g>
	<line stroke="black" stroke-opacity="1" x1="736" y1="965" x2="729" y2="959" />
	<line stroke="black" stroke-opacity="1" x1="736" y1="965" x2="730" y2="971" />
	<line stroke="black" stroke-opacity="1" x1="347" y1="966" x2="736" y2="965" />
</g>
<g>
	<rect fill="#808080" stroke="none" stroke-opacity="1" x="599" y="472" width="2" height="162" />
	<rect fill="#808080" stroke="none" stroke-opacity="1" x="515" y="632" width="86" height="2" />
	<rect fill="#ffffc0" stroke="black" stroke-width="1" stroke-opacity="1" x="512" y="469" width="87" height="163" />
	<text font-family="Helvetica" font-size="8" fill="#000000" xml:space="preserve" font-weight="bold" text-anchor="middle" x="556" y="478">Teacher</text>
	<line stroke="black" stroke-opacity="1" x1="512" y1="480" x2="599" y2="480" />
	<text font-family="Helvetica" font-size="8" fill="#000000" xml:space="preserve" x="514" y="489">firstName</text>
	<text font-family="Helvetica" font-size="8" fill="#000000" xml:space="preserve" x="514" y="499">lastName</text>
	<text font-family="Helvetica" font-size="8" fill="#000000" xml:space="preserve" x="514" y="509">preferedTimeSlides</text>
	<text font-family="Helvetica" font-size="8" fill="#000000" xml:space="preserve" x="514" y="519">testi</text>
	<line stroke="black" stroke-opacity="1" x1="512" y1="521" x2="599" y2="521" />
	<text font-family="Helvetica" font-size="8" fill="#000000" xml:space="preserve" x="514" y="530">Teacher()</text>
	<text font-family="Helvetica" font-size="8" fill="#000000" xml:space="preserve" x="514" y="540">Teacher()</text>
	<text font-family="Helvetica" font-size="8" fill="#000000" xml:space="preserve" x="514" y="550">setPreferedSlide()</text>
	<text font-family="Helvetica" font-size="8" fill="#000000" xml:space="preserve" x="514" y="560">getPreferedTimeSlides()</text>
	<text font-family="Helvetica" font-size="8" fill="#000000" xml:space="preserve" x="514" y="570">getCards()</text>
	<text font-family="Helvetica" font-size="8" fill="#000000" xml:space="preserve" x="514" y="580">putLocal()</text>
	<text font-family="Helvetica" font-size="8" fill="#000000" xml:space="preserve" x="514" y="590">setCards()</text>
	<text font-family="Helvetica" font-size="8" fill="#000000" xml:space="preserve" x="514" y="600">addCard()</text>
	<text font-family="Helvetica" font-size="8" fill="#000000" xml:space="preserve" x="514" y="610">addCourse()</text>
	<text font-family="Helvetica" font-size="8" fill="#000000" xml:space="preserve" x="514" y="620">getFirstName()</text>
	<text font-family="Helvetica" font-size="8" fill="#000000" xml:space="preserve" x="514" y="630">getLastName()</text>
</g>
<g>
	<text font-family="Helvetica" font-size="8" fill="#000000" xml:space="preserve" x="841" y="677">&lt;&lt;ArrayList&gt;&gt;</text>
</g>
<g>
	<line stroke="black" stroke-opacity="1" x1="602" y1="535" x2="620" y2="530" />
</g>
<g>
	<line stroke="black" stroke-opacity="1" x1="520" y1="635" x2="516" y2="726" />
</g>
<g>
	<line stroke="black" stroke-opacity="1" x1="852" y1="848" x2="848" y2="503" />
</g>
<g>
	<text font-family="Helvetica" font-size="8" fill="#000000" xml:space="preserve" x="323" y="643">&lt;&lt;Map&gt;&gt;</text>
</g>
<g>
	<line stroke="black" stroke-opacity="1" x1="342" y1="695" x2="342" y2="569" />
</g>
<g>
	<line stroke="black" stroke-opacity="1" x1="830" y1="533" x2="833" y2="816" />
</g>
<g>
	<line stroke="black" stroke-opacity="1" x1="620" y1="530" x2="830" y2="533" />
</g>
<g>
	<line stroke="black" stroke-opacity="1" x1="347" y1="729" x2="353" y2="734" />
	<line stroke="black" stroke-opacity="1" x1="347" y1="729" x2="352" y2="722" />
	<line stroke="black" stroke-opacity="1" x1="516" y1="726" x2="347" y2="729" />
</g>
<g>
	<line stroke="black" stroke-opacity="1" x1="848" y1="503" x2="620" y2="503" />
</g>
<g>
	<line stroke="black" stroke-opacity="1" x1="602" y1="515" x2="610" y2="516" />
	<line stroke="black" stroke-opacity="1" x1="602" y1="515" x2="603" y2="506" />
	<line stroke="black" stroke-opacity="1" x1="620" y1="503" x2="602" y2="515" />
</g>
<g>
	<line stroke="black" stroke-opacity="1" x1="511" y1="555" x2="504" y2="549" />
	<line stroke="black" stroke-opacity="1" x1="511" y1="555" x2="505" y2="561" />
	<line stroke="black" stroke-opacity="1" x1="342" y1="569" x2="511" y2="555" />
</g>
<g>
	<line stroke="black" stroke-opacity="1" x1="826" y1="848" x2="833" y2="843" />
	<line stroke="black" stroke-opacity="1" x1="826" y1="848" x2="821" y2="840" />
	<line stroke="black" stroke-opacity="1" x1="833" y1="816" x2="826" y2="848" />
</g>
<g>
	<rect fill="#808080" stroke="none" stroke-opacity="1" x="492" y="980" width="2" height="222" />
	<rect fill="#808080" stroke="none" stroke-opacity="1" x="416" y="1200" width="78" height="2" />
	<rect fill="#ffffc0" stroke="black" stroke-width="1" stroke-opacity="1" x="413" y="977" width="79" height="223" />
	<text font-family="Helvetica" font-size="8" fill="#000000" xml:space="preserve" font-weight="bold" text-anchor="middle" x="453" y="986">Section</text>
	<line stroke="black" stroke-opacity="1" x1="413" y1="988" x2="492" y2="988" />
	<text font-family="Helvetica" font-size="8" fill="#000000" xml:space="preserve" x="415" y="997">name</text>
	<text font-family="Helvetica" font-size="8" fill="#000000" xml:space="preserve" x="415" y="1007">year</text>
	<text font-family="Helvetica" font-size="8" fill="#000000" xml:space="preserve" x="415" y="1017">sectionType</text>
	<text font-family="Helvetica" font-size="8" fill="#000000" xml:space="preserve" x="415" y="1027">groupNumber</text>
	<text font-family="Helvetica" font-size="8" fill="#000000" xml:space="preserve" x="415" y="1037">num_of_students</text>
	<line stroke="black" stroke-opacity="1" x1="413" y1="1039" x2="492" y2="1039" />
	<text font-family="Helvetica" font-size="8" fill="#000000" xml:space="preserve" x="415" y="1048">Section()</text>
	<text font-family="Helvetica" font-size="8" fill="#000000" xml:space="preserve" x="415" y="1058">Section()</text>
	<text font-family="Helvetica" font-size="8" fill="#000000" xml:space="preserve" x="415" y="1068">getYear()</text>
	<text font-family="Helvetica" font-size="8" fill="#000000" xml:space="preserve" x="415" y="1078">setYear()</text>
	<text font-family="Helvetica" font-size="8" fill="#000000" xml:space="preserve" x="415" y="1088">getSectionType()</text>
	<text font-family="Helvetica" font-size="8" fill="#000000" xml:space="preserve" x="415" y="1098">setSectionType()</text>
	<text font-family="Helvetica" font-size="8" fill="#000000" xml:space="preserve" x="415" y="1108">getGroupNumber()</text>
	<text font-family="Helvetica" font-size="8" fill="#000000" xml:space="preserve" x="415" y="1118">setGroupNumber()</text>
	<text font-family="Helvetica" font-size="8" fill="#000000" xml:space="preserve" x="415" y="1128">setCards()</text>
	<text font-family="Helvetica" font-size="8" fill="#000000" xml:space="preserve" x="415" y="1138">getNum_of_students()</text>
	<text font-family="Helvetica" font-size="8" fill="#000000" xml:space="preserve" x="415" y="1148">setNum_of_students()</text>
	<text font-family="Helvetica" font-size="8" fill="#000000" xml:space="preserve" x="415" y="1158">addCard()</text>
	<text font-family="Helvetica" font-size="8" fill="#000000" xml:space="preserve" x="415" y="1168">getName()</text>
	<text font-family="Helvetica" font-size="8" fill="#000000" xml:space="preserve" x="415" y="1178">setName()</text>
	<text font-family="Helvetica" font-size="8" fill="#000000" xml:space="preserve" x="415" y="1188">getCards()</text>
	<text font-family="Helvetica" font-size="8" fill="#000000" xml:space="preserve" x="415" y="1198">toString()</text>
</g>
<g>
	<text font-family="Helvetica" font-size="8" fill="#000000" xml:space="preserve" x="591" y="1046">&lt;&lt;ArrayList&gt;&gt;</text>
</g>
<g>
	<line stroke="black" stroke-opacity="1" x1="736" y1="1040" x2="730" y2="1033" />
	<line stroke="black" stroke-opacity="1" x1="736" y1="1040" x2="729" y2="1045" />
	<line stroke="black" stroke-opacity="1" x1="495" y1="1036" x2="736" y2="1040" />
</g>
<g>
	<text font-family="Helvetica" font-size="8" fill="#000000" xml:space="preserve" x="665" y="1099">&lt;&lt;ArrayList&gt;&gt;</text>
</g>
<g>
	<line stroke="black" stroke-opacity="1" x1="495" y1="1090" x2="500" y2="1096" />
	<line stroke="black" stroke-opacity="1" x1="495" y1="1090" x2="501" y2="1084" />
	<line stroke="black" stroke-opacity="1" x1="736" y1="1095" x2="495" y2="1090" />
</g>
<g>
	<text font-family="Helvetica" font-size="8" fill="#000000" xml:space="preserve" x="351" y="1026">&lt;&lt;Map&gt;&gt;</text>
</g>
<g>
	<line stroke="black" stroke-opacity="1" x1="412" y1="1040" x2="405" y2="1034" />
	<line stroke="black" stroke-opacity="1" x1="412" y1="1040" x2="406" y2="1046" />
	<line stroke="black" stroke-opacity="1" x1="347" y1="1047" x2="412" y2="1040" />
</g>
<g>
	<rect fill="#808080" stroke="none" stroke-opacity="1" x="811" y="559" width="2" height="212" />
	<rect fill="#808080" stroke="none" stroke-opacity="1" x="753" y="769" width="60" height="2" />
	<rect fill="#ffffc0" stroke="black" stroke-width="1" stroke-opacity="1" x="750" y="556" width="61" height="213" />
	<text font-family="Helvetica" font-size="8" fill="#000000" xml:space="preserve" font-weight="bold" text-anchor="middle" x="781" y="565">Room</text>
	<line stroke="black" stroke-opacity="1" x1="750" y1="567" x2="811" y2="567" />
	<text font-family="Helvetica" font-size="8" fill="#000000" xml:space="preserve" x="752" y="576">name</text>
	<text font-family="Helvetica" font-size="8" fill="#000000" xml:space="preserve" x="752" y="586">type</text>
	<text font-family="Helvetica" font-size="8" fill="#000000" xml:space="preserve" x="752" y="596">seats</text>
	<text font-family="Helvetica" font-size="8" fill="#000000" xml:space="preserve" x="752" y="606">info</text>
	<line stroke="black" stroke-opacity="1" x1="750" y1="608" x2="811" y2="608" />
	<text font-family="Helvetica" font-size="8" fill="#000000" xml:space="preserve" x="752" y="617">Room()</text>
	<text font-family="Helvetica" font-size="8" fill="#000000" xml:space="preserve" x="752" y="627">Room()</text>
	<text font-family="Helvetica" font-size="8" fill="#000000" xml:space="preserve" x="752" y="637">getCapacity()</text>
	<text font-family="Helvetica" font-size="8" fill="#000000" xml:space="preserve" x="752" y="647">isBusy()</text>
	<text font-family="Helvetica" font-size="8" fill="#000000" xml:space="preserve" x="752" y="657">addCard()</text>
	<text font-family="Helvetica" font-size="8" fill="#000000" xml:space="preserve" x="752" y="667">removeCard()</text>
	<text font-family="Helvetica" font-size="8" fill="#000000" xml:space="preserve" x="752" y="677">getName()</text>
	<text font-family="Helvetica" font-size="8" fill="#000000" xml:space="preserve" x="752" y="687">setName()</text>
	<text font-family="Helvetica" font-size="8" fill="#000000" xml:space="preserve" x="752" y="697">getType()</text>
	<text font-family="Helvetica" font-size="8" fill="#000000" xml:space="preserve" x="752" y="707">setType()</text>
	<text font-family="Helvetica" font-size="8" fill="#000000" xml:space="preserve" x="752" y="717">isInfo()</text>
	<text font-family="Helvetica" font-size="8" fill="#000000" xml:space="preserve" x="752" y="727">setInfo()</text>
	<text font-family="Helvetica" font-size="8" fill="#000000" xml:space="preserve" x="752" y="737">getCards()</text>
	<text font-family="Helvetica" font-size="8" fill="#000000" xml:space="preserve" x="752" y="747">setSeats()</text>
	<text font-family="Helvetica" font-size="8" fill="#000000" xml:space="preserve" x="752" y="757">toString()</text>
	<text font-family="Helvetica" font-size="8" fill="#000000" xml:space="preserve" x="752" y="767">canAcceptCard()</text>
</g>
<g>
	<text font-family="Helvetica" font-size="8" fill="#000000" xml:space="preserve" x="743" y="805">&lt;&lt;ArrayList&gt;&gt;</text>
</g>
<g>
	<line stroke="black" stroke-opacity="1" x1="787" y1="772" x2="791" y2="836" />
</g>
<g>
	<text font-family="Helvetica" font-size="8" fill="#000000" xml:space="preserve" x="706" y="574">&lt;&lt;Map&gt;&gt;</text>
</g>
<g>
	<line stroke="black" stroke-opacity="1" x1="749" y1="646" x2="746" y2="637" />
	<line stroke="black" stroke-opacity="1" x1="749" y1="646" x2="740" y2="648" />
	<line stroke="black" stroke-opacity="1" x1="602" y1="574" x2="749" y2="646" />
</g>
<g>
	<text font-family="Helvetica" font-size="8" fill="#000000" xml:space="preserve" x="789" y="819">&lt;&lt;Map&gt;&gt;</text>
</g>
<g>
	<line stroke="black" stroke-opacity="1" x1="804" y1="772" x2="798" y2="778" />
	<line stroke="black" stroke-opacity="1" x1="804" y1="772" x2="810" y2="777" />
	<line stroke="black" stroke-opacity="1" x1="809" y1="848" x2="804" y2="772" />
</g>
<g>
	<line stroke="black" stroke-opacity="1" x1="767" y1="772" x2="761" y2="778" />
	<line stroke="black" stroke-opacity="1" x1="767" y1="772" x2="773" y2="777" />
	<line stroke="black" stroke-opacity="1" x1="771" y1="848" x2="767" y2="772" />
</g>
<g>
	<line stroke="black" stroke-opacity="1" x1="347" y1="896" x2="663" y2="875" />
</g>
<g>
	<line stroke="black" stroke-opacity="1" x1="749" y1="719" x2="740" y2="721" />
	<line stroke="black" stroke-opacity="1" x1="749" y1="719" x2="751" y2="727" />
	<line stroke="black" stroke-opacity="1" x1="663" y1="875" x2="749" y2="719" />
</g>
<g>
	<rect fill="#808080" stroke="none" stroke-opacity="1" x="312" y="584" width="2" height="42" />
	<rect fill="#808080" stroke="none" stroke-opacity="1" x="250" y="624" width="64" height="2" />
	<rect fill="#ffffc0" stroke="black" stroke-width="1" stroke-opacity="1" x="247" y="581" width="65" height="43" />
	<text font-family="Helvetica" font-size="8" fill="#000000" xml:space="preserve" font-weight="bold" text-anchor="middle" x="280" y="590">NoFileException</text>
	<line stroke="black" stroke-opacity="1" x1="247" y1="592" x2="312" y2="592" />
	<text font-family="Helvetica" font-size="8" fill="#000000" xml:space="preserve" text-decoration="underline" x="249" y="601">serialVersionUID</text>
	<line stroke="black" stroke-opacity="1" x1="247" y1="603" x2="312" y2="603" />
	<text font-family="Helvetica" font-size="8" fill="#000000" xml:space="preserve" x="249" y="612">NoFileException()</text>
	<text font-family="Helvetica" font-size="8" fill="#000000" xml:space="preserve" x="249" y="622">NoFileException()</text>
</g>
<g>
	<line stroke="black" stroke-opacity="1" x1="791" y1="848" x2="797" y2="842" />
	<line stroke="black" stroke-opacity="1" x1="791" y1="848" x2="785" y2="842" />
	<line stroke="black" stroke-opacity="1" x1="791" y1="836" x2="791" y2="848" />
</g>
<g>
	<line stroke="black" stroke-opacity="1" x1="281" y1="627" x2="282" y2="695" />
</g>
<g>
	<rect fill="#808080" stroke="none" stroke-opacity="1" x="594" y="761" width="2" height="102" />
	<rect fill="#808080" stroke="none" stroke-opacity="1" x="546" y="861" width="50" height="2" />
	<rect fill="#ffffc0" stroke="black" stroke-width="1" stroke-opacity="1" x="543" y="758" width="51" height="103" />
	<text font-family="Helvetica" font-size="8" fill="#000000" xml:space="preserve" font-weight="bold" text-anchor="middle" x="569" y="767">Lesson</text>
	<line stroke="black" stroke-opacity="1" x1="543" y1="769" x2="594" y2="769" />
	<text font-family="Helvetica" font-size="8" fill="#000000" xml:space="preserve" x="545" y="778">name</text>
	<text font-family="Helvetica" font-size="8" fill="#000000" xml:space="preserve" x="545" y="788">group</text>
	<text font-family="Helvetica" font-size="8" fill="#000000" xml:space="preserve" x="545" y="798">period</text>
	<line stroke="black" stroke-opacity="1" x1="543" y1="800" x2="594" y2="800" />
	<text font-family="Helvetica" font-size="8" fill="#000000" xml:space="preserve" x="545" y="809">Lesson()</text>
	<text font-family="Helvetica" font-size="8" fill="#000000" xml:space="preserve" x="545" y="819">Lesson()</text>
	<text font-family="Helvetica" font-size="8" fill="#000000" xml:space="preserve" x="545" y="829">Lesson()</text>
	<text font-family="Helvetica" font-size="8" fill="#000000" xml:space="preserve" x="545" y="839">setOtherInfo()</text>
	<text font-family="Helvetica" font-size="8" fill="#000000" xml:space="preserve" x="545" y="849">putRoom()</text>
	<text font-family="Helvetica" font-size="8" fill="#000000" xml:space="preserve" x="545" y="859">getTeacher()</text>
</g>
<g>
	<text font-family="Helvetica" font-size="8" fill="#000000" xml:space="preserve" x="655" y="747">&lt;&lt;Map&gt;&gt;</text>
</g>
<g>
	<line stroke="black" stroke-opacity="1" x1="749" y1="689" x2="740" y2="687" />
	<line stroke="black" stroke-opacity="1" x1="749" y1="689" x2="747" y2="697" />
	<line stroke="black" stroke-opacity="1" x1="597" y1="789" x2="749" y2="689" />
</g>
<g>
	<line stroke="black" stroke-opacity="1" x1="550" y1="635" x2="544" y2="641" />
	<line stroke="black" stroke-opacity="1" x1="550" y1="635" x2="556" y2="640" />
	<line stroke="black" stroke-opacity="1" x1="551" y1="757" x2="550" y2="635" />
</g>
<g>
	<text font-family="Helvetica" font-size="8" fill="#000000" xml:space="preserve" x="553" y="703">&lt;&lt;Map&gt;&gt;</text>
</g>
<g>
	<line stroke="black" stroke-opacity="1" x1="570" y1="757" x2="576" y2="751" />
	<line stroke="black" stroke-opacity="1" x1="570" y1="757" x2="564" y2="750" />
	<line stroke="black" stroke-opacity="1" x1="572" y1="635" x2="570" y2="757" />
</g>
<g>
	<line stroke="black" stroke-opacity="1" x1="756" y1="848" x2="753" y2="834" />
</g>
<g>
	<text font-family="Helvetica" font-size="8" fill="#000000" xml:space="preserve" x="426" y="828">&lt;&lt;Map&gt;&gt;</text>
</g>
<g>
	<line stroke="black" stroke-opacity="1" x1="542" y1="819" x2="535" y2="813" />
	<line stroke="black" stroke-opacity="1" x1="542" y1="819" x2="536" y2="825" />
	<line stroke="black" stroke-opacity="1" x1="347" y1="820" x2="542" y2="819" />
</g>
<g>
	<line stroke="black" stroke-opacity="1" x1="597" y1="813" x2="602" y2="819" />
	<line stroke="black" stroke-opacity="1" x1="597" y1="813" x2="603" y2="807" />
	<line stroke="black" stroke-opacity="1" x1="753" y1="834" x2="597" y2="813" />
</g>
<g>
	<rect fill="#808080" stroke="none" stroke-opacity="1" x="264" y="511" width="2" height="42" />
	<rect fill="#808080" stroke="none" stroke-opacity="1" x="164" y="551" width="102" height="2" />
	<rect fill="#ffffc0" stroke="black" stroke-width="1" stroke-opacity="1" x="161" y="508" width="103" height="43" />
	<text font-family="Helvetica" font-size="8" fill="#000000" xml:space="preserve" font-weight="bold" text-anchor="middle" x="213" y="517">NotSuportedFileException</text>
	<line stroke="black" stroke-opacity="1" x1="161" y1="519" x2="264" y2="519" />
	<text font-family="Helvetica" font-size="8" fill="#000000" xml:space="preserve" text-decoration="underline" x="163" y="528">serialVersionUID</text>
	<line stroke="black" stroke-opacity="1" x1="161" y1="530" x2="264" y2="530" />
	<text font-family="Helvetica" font-size="8" fill="#000000" xml:space="preserve" x="163" y="539">NotSuportedFileException()</text>
	<text font-family="Helvetica" font-size="8" fill="#000000" xml:space="preserve" x="163" y="549">NotSuportedFileException()</text>
</g>
<g>
	<line stroke="black" stroke-opacity="1" x1="218" y1="554" x2="246" y2="695" />
</g>
</svg>
